<svg width="132" height="43" viewBox="0 0 132 43" fill="none" xmlns="http://www.w3.org/2000/svg">
<path d="M35.7297 17.765L32.1778 19.8117L31.3651 20.233L26.835 17.8704L31.3802 15.583L35.7297 17.765Z" fill="#E2E2E2"/>
<path d="M30.8688 7.75757L30.5979 13.4309L25.7969 16.5459L25.9775 10.692L30.8688 7.75757Z" fill="#E2E2E2"/>
<path d="M57.7029 34.9806C57.6728 35.0408 57.6277 35.0859 57.5825 35.116C57.5374 35.1461 57.4922 35.1612 57.417 35.1612C57.3417 35.1612 57.2665 35.1311 57.1762 35.0558C57.0859 34.9806 56.9655 34.9054 56.83 34.8301C56.6946 34.7398 56.514 34.6646 56.3183 34.6044C56.1227 34.5291 55.8818 34.499 55.5959 34.499C55.325 34.499 55.0842 34.5291 54.8885 34.6044C54.6778 34.6796 54.5123 34.7699 54.3768 34.8903C54.2414 35.0107 54.136 35.1612 54.0608 35.3267C53.9855 35.4922 53.9554 35.6728 53.9554 35.8685C53.9554 36.1092 54.0156 36.3199 54.136 36.4855C54.2564 36.651 54.422 36.7864 54.6176 36.9068C54.8133 37.0272 55.039 37.1175 55.2949 37.2078C55.5507 37.2981 55.8066 37.3733 56.0775 37.4636C56.3484 37.5539 56.6043 37.6592 56.8601 37.7646C57.116 37.885 57.3417 38.0204 57.5374 38.201C57.733 38.3665 57.8986 38.5923 58.019 38.833C58.1394 39.0889 58.1996 39.3898 58.1996 39.766C58.1996 40.1573 58.1394 40.5185 58.0039 40.8495C57.8685 41.1957 57.6728 41.4816 57.432 41.7374C57.1762 41.9932 56.8752 42.1889 56.4989 42.3243C56.1377 42.4748 55.7163 42.535 55.2497 42.535C54.6778 42.535 54.1511 42.4296 53.6845 42.219C53.2179 42.0083 52.8116 41.7374 52.4805 41.3762L52.8266 40.8044C52.8567 40.7592 52.9019 40.7141 52.947 40.684C52.9922 40.6539 53.0524 40.6389 53.0975 40.6389C53.1878 40.6389 53.2781 40.684 53.3985 40.7743C53.5189 40.8646 53.6544 40.9699 53.82 41.0753C53.9855 41.1806 54.1812 41.2859 54.422 41.3762C54.6628 41.4665 54.9487 41.5117 55.2949 41.5117C55.5808 41.5117 55.8367 41.4665 56.0474 41.3913C56.2732 41.316 56.4538 41.1957 56.6193 41.0602C56.7698 40.9248 56.8902 40.7442 56.9805 40.5486C57.0558 40.3529 57.1009 40.1272 57.1009 39.8864C57.1009 39.6156 57.0407 39.4049 56.9203 39.2243C56.7999 39.0588 56.6344 38.9083 56.4387 38.7879C56.2431 38.6675 56.0173 38.5772 55.7614 38.502C55.5056 38.4267 55.2497 38.3364 54.9788 38.2612C54.7079 38.1859 54.4521 38.0806 54.1962 37.9753C53.9404 37.8699 53.7146 37.7194 53.5189 37.5388C53.3233 37.3583 53.1577 37.1476 53.0373 36.8767C52.9169 36.6058 52.8567 36.2898 52.8567 35.8986C52.8567 35.5825 52.9169 35.2816 53.0373 34.9956C53.1577 34.7097 53.3383 34.4388 53.5641 34.2131C53.7898 33.9874 54.0758 33.8068 54.422 33.6714C54.7681 33.5359 55.1444 33.4607 55.5959 33.4607C56.0926 33.4607 56.5441 33.5359 56.9504 33.7015C57.3568 33.852 57.718 34.0777 58.019 34.3787L57.7029 34.9806Z" fill="#9FCAD1"/>
<path d="M64.4911 36.0942C64.9426 36.0942 65.364 36.1695 65.7252 36.32C66.0864 36.4705 66.4025 36.6811 66.6584 36.9671C66.9142 37.253 67.1099 37.584 67.2453 37.9904C67.3808 38.3816 67.456 38.8331 67.456 39.3146C67.456 39.8112 67.3808 40.2476 67.2453 40.654C67.1099 41.0452 66.9142 41.3913 66.6584 41.6622C66.4025 41.9481 66.0864 42.1588 65.7252 42.3093C65.364 42.4598 64.9426 42.535 64.4911 42.535C64.0396 42.535 63.6182 42.4598 63.257 42.3093C62.8958 42.1588 62.5797 41.9481 62.3088 41.6622C62.053 41.3763 61.8573 41.0452 61.7068 40.654C61.5713 40.2627 61.4961 39.8112 61.4961 39.3146C61.4961 38.818 61.5713 38.3816 61.7068 37.9904C61.8423 37.5991 62.053 37.253 62.3088 36.9671C62.5647 36.6811 62.8807 36.4705 63.257 36.32C63.6332 36.1695 64.0246 36.0942 64.4911 36.0942ZM64.4911 41.6773C65.1082 41.6773 65.5747 41.4666 65.8757 41.0603C66.1767 40.6389 66.3272 40.0671 66.3272 39.3297C66.3272 38.5773 66.1767 38.0054 65.8757 37.584C65.5747 37.1627 65.1082 36.9671 64.4911 36.9671C64.1751 36.9671 63.9041 37.0272 63.6784 37.1326C63.4526 37.2379 63.257 37.3884 63.1065 37.5991C62.956 37.7947 62.8356 38.0505 62.7603 38.3365C62.6851 38.6224 62.6399 38.9685 62.6399 39.3297C62.6399 39.6908 62.6851 40.037 62.7603 40.3229C62.8356 40.6088 62.956 40.8646 63.1065 41.0603C63.257 41.2559 63.4526 41.4064 63.6784 41.5268C63.9041 41.6321 64.1751 41.6773 64.4911 41.6773Z" fill="#9FCAD1"/>
<path d="M72.4522 33.3553V42.4447H71.3535V33.3553H72.4522Z" fill="#9FCAD1"/>
<path d="M77.75 36.1993V40.1872C77.75 40.6537 77.8554 41.0299 78.0811 41.2858C78.3069 41.5416 78.623 41.677 79.0745 41.677C79.3905 41.677 79.6916 41.6018 79.9775 41.4513C80.2635 41.3008 80.5193 41.0901 80.7601 40.8192V36.1993H81.8588V42.4595H81.2116C81.0611 42.4595 80.9558 42.3843 80.9106 42.2338L80.8203 41.5566C80.5494 41.8576 80.2484 42.0984 79.9023 42.279C79.5711 42.4595 79.1798 42.5498 78.7434 42.5498C78.3972 42.5498 78.0962 42.4896 77.8403 42.3843C77.5845 42.2639 77.3587 42.1134 77.1781 41.9027C76.9975 41.6921 76.8621 41.4513 76.7868 41.1503C76.7116 40.8493 76.6514 40.5333 76.6514 40.1872V36.1993H77.75Z" fill="#9FCAD1"/>
<path d="M87.9835 42.55C87.4869 42.55 87.1106 42.4146 86.8397 42.1437C86.5688 41.8728 86.4484 41.4665 86.4484 40.9549V37.1175H85.6959C85.6357 37.1175 85.5755 37.1024 85.5303 37.0573C85.4852 37.0121 85.4551 36.952 85.4551 36.8767V36.4403L86.4785 36.3049L86.7344 34.3786C86.7494 34.3184 86.7645 34.2733 86.8096 34.2282C86.8548 34.183 86.915 34.168 86.9752 34.168H87.532V36.3199H89.323V37.1175H87.532V40.8646C87.532 41.1355 87.5922 41.3311 87.7277 41.4515C87.8631 41.5719 88.0136 41.6471 88.2243 41.6471C88.3447 41.6471 88.435 41.632 88.5254 41.602C88.6157 41.5719 88.6759 41.5418 88.7511 41.4966C88.8264 41.4515 88.8715 41.4214 88.9016 41.3913C88.9317 41.3612 88.9769 41.3461 89.022 41.3461C89.0822 41.3461 89.1274 41.3762 89.1725 41.4515L89.4886 41.9782C89.2929 42.1587 89.0672 42.2942 88.7963 42.3995C88.5254 42.5049 88.2695 42.55 87.9835 42.55Z" fill="#9FCAD1"/>
<path d="M94.5766 34.2282C94.5766 34.3335 94.5615 34.4389 94.5164 34.5292C94.4712 34.6195 94.411 34.7098 94.3508 34.77C94.2906 34.8302 94.2003 34.9054 94.0949 34.9355C94.0046 34.9806 93.8993 34.9957 93.7939 34.9957C93.6886 34.9957 93.5832 34.9806 93.4929 34.9355C93.4026 34.8903 93.3123 34.8452 93.2521 34.77C93.1769 34.6947 93.1167 34.6195 93.0866 34.5292C93.0565 34.4389 93.0264 34.3335 93.0264 34.2282C93.0264 34.1229 93.0414 34.0175 93.0866 33.9272C93.1317 33.8369 93.1769 33.7466 93.2521 33.6714C93.3274 33.5962 93.4026 33.536 93.4929 33.5059C93.5832 33.4758 93.6886 33.4457 93.7939 33.4457C93.8993 33.4457 94.0046 33.4607 94.0949 33.5059C94.1852 33.551 94.2756 33.5962 94.3508 33.6714C94.4261 33.7466 94.4863 33.8219 94.5164 33.9272C94.5465 34.0326 94.5766 34.1229 94.5766 34.2282ZM94.3207 36.1996V42.4598H93.222V36.1996H94.3207Z" fill="#9FCAD1"/>
<path d="M101.214 36.0942C101.665 36.0942 102.087 36.1695 102.448 36.32C102.809 36.4705 103.125 36.6811 103.381 36.9671C103.637 37.253 103.833 37.584 103.968 37.9904C104.103 38.3816 104.179 38.8331 104.179 39.3146C104.179 39.8112 104.103 40.2476 103.968 40.654C103.833 41.0452 103.637 41.3913 103.381 41.6622C103.125 41.9481 102.809 42.1588 102.448 42.3093C102.087 42.4598 101.665 42.535 101.214 42.535C100.762 42.535 100.341 42.4598 99.9796 42.3093C99.6184 42.1588 99.3024 41.9481 99.0315 41.6622C98.7756 41.3763 98.58 41.0452 98.4295 40.654C98.294 40.2627 98.2188 39.8112 98.2188 39.3146C98.2188 38.818 98.294 38.3816 98.4295 37.9904C98.5649 37.5991 98.7756 37.253 99.0315 36.9671C99.2873 36.6811 99.6034 36.4705 99.9796 36.32C100.356 36.1695 100.747 36.0942 101.214 36.0942ZM101.214 41.6773C101.831 41.6773 102.297 41.4666 102.598 41.0603C102.899 40.6389 103.05 40.0671 103.05 39.3297C103.05 38.5773 102.899 38.0054 102.598 37.584C102.297 37.1627 101.831 36.9671 101.214 36.9671C100.898 36.9671 100.627 37.0272 100.401 37.1326C100.175 37.2379 99.9796 37.3884 99.8291 37.5991C99.6786 37.7947 99.5582 38.0505 99.483 38.3365C99.4077 38.6224 99.3626 38.9685 99.3626 39.3297C99.3626 39.6908 99.4077 40.037 99.483 40.3229C99.5582 40.6088 99.6786 40.8646 99.8291 41.0603C99.9796 41.2559 100.175 41.4064 100.401 41.5268C100.627 41.6321 100.898 41.6773 101.214 41.6773Z" fill="#9FCAD1"/>
<path d="M107.957 42.4447V36.1845H108.604C108.755 36.1845 108.86 36.2598 108.905 36.4103L108.996 37.0874C109.266 36.7865 109.567 36.5457 109.914 36.3651C110.245 36.1845 110.636 36.0942 111.072 36.0942C111.419 36.0942 111.72 36.1544 111.975 36.2598C112.231 36.3802 112.457 36.5306 112.623 36.7413C112.803 36.952 112.924 37.1928 113.014 37.4938C113.104 37.7797 113.149 38.1107 113.149 38.4569V42.4447H112.051V38.4719C112.051 38.0054 111.945 37.6292 111.72 37.3734C111.509 37.1175 111.178 36.9821 110.726 36.9821C110.395 36.9821 110.094 37.0573 109.808 37.2229C109.522 37.3734 109.266 37.584 109.026 37.8549V42.4598H107.957V42.4447Z" fill="#9FCAD1"/>
<path d="M120.809 37.2229C120.764 37.3131 120.689 37.3583 120.583 37.3583C120.523 37.3583 120.448 37.3432 120.372 37.283C120.297 37.2379 120.192 37.1927 120.087 37.1326C119.981 37.0724 119.846 37.0272 119.68 36.9821C119.53 36.9369 119.334 36.9068 119.123 36.9068C118.943 36.9068 118.777 36.9369 118.627 36.9821C118.476 37.0272 118.356 37.0874 118.25 37.1777C118.145 37.268 118.07 37.3583 118.01 37.4636C117.949 37.569 117.919 37.6894 117.919 37.8248C117.919 37.9903 117.964 38.1258 118.055 38.2311C118.145 38.3364 118.265 38.4267 118.416 38.502C118.566 38.5772 118.747 38.6525 118.928 38.7127C119.123 38.7728 119.319 38.833 119.53 38.9083C119.74 38.9835 119.936 39.0588 120.132 39.134C120.327 39.2093 120.493 39.3146 120.643 39.45C120.794 39.5704 120.914 39.7209 121.005 39.9015C121.095 40.0821 121.14 40.2928 121.14 40.5486C121.14 40.8345 121.095 41.1054 120.99 41.3461C120.884 41.5869 120.734 41.7976 120.538 41.9782C120.342 42.1588 120.087 42.2942 119.801 42.3995C119.515 42.5049 119.168 42.55 118.792 42.55C118.356 42.55 117.964 42.4748 117.603 42.3394C117.242 42.2039 116.956 42.0083 116.7 41.7976L116.956 41.3762C116.986 41.3161 117.031 41.286 117.076 41.2559C117.122 41.2258 117.182 41.2107 117.257 41.2107C117.332 41.2107 117.408 41.2408 117.498 41.301C117.573 41.3612 117.678 41.4214 117.799 41.4966C117.919 41.5719 118.055 41.6321 118.22 41.6923C118.386 41.7525 118.597 41.7826 118.852 41.7826C119.063 41.7826 119.259 41.7525 119.409 41.6923C119.575 41.6321 119.71 41.5568 119.816 41.4665C119.921 41.3763 119.996 41.2559 120.056 41.1355C120.102 41.0151 120.132 40.8796 120.132 40.7442C120.132 40.5787 120.087 40.4282 119.996 40.3078C119.906 40.1874 119.786 40.0971 119.635 40.0219C119.485 39.9466 119.304 39.8714 119.108 39.8112C118.913 39.751 118.717 39.6908 118.506 39.6156C118.296 39.5554 118.1 39.4801 117.904 39.3898C117.709 39.2995 117.528 39.1942 117.377 39.0738C117.227 38.9534 117.107 38.7879 117.016 38.6073C116.926 38.4267 116.881 38.186 116.881 37.9301C116.881 37.6894 116.926 37.4636 117.031 37.2379C117.137 37.0122 117.272 36.8316 117.468 36.651C117.663 36.4855 117.889 36.35 118.16 36.2597C118.431 36.1544 118.747 36.1093 119.108 36.1093C119.515 36.1093 119.891 36.1694 120.222 36.3049C120.553 36.4403 120.839 36.6059 121.065 36.8316L120.809 37.2229Z" fill="#9FCAD1"/>
<path d="M67.3346 4.7179V7.84799H56.3478V15.0412H65.1222V18.066H56.3478V25.4398H67.3496L67.3346 28.5699H52.4648V4.7179H67.3346Z" fill="#297899"/>
<path d="M83.8606 20.2179C84.0111 20.549 84.1465 20.8951 84.282 21.2563C84.4174 20.9101 84.5529 20.549 84.7034 20.2029C84.8539 19.8567 85.0044 19.5257 85.17 19.1946L92.7102 5.36498C92.8607 5.04896 93.0413 4.86838 93.2219 4.80818C93.4025 4.74799 93.6734 4.7179 94.0196 4.7179H96.9243V28.5699H93.5078V12.2271C93.5078 11.9563 93.5229 11.6703 93.5379 11.3694C93.553 11.0533 93.5681 10.7524 93.5982 10.4213L85.9375 24.5669C85.6365 25.1538 85.185 25.4398 84.568 25.4398H84.0261C83.394 25.4398 82.9425 25.1538 82.6565 24.5669L74.8605 10.3762C74.8906 10.7072 74.9207 11.0232 74.9508 11.3393C74.9658 11.6553 74.9809 11.9563 74.9809 12.2271V28.5699H71.5645V4.7179H74.4692C74.8153 4.7179 75.0712 4.74799 75.2668 4.80818C75.4474 4.86838 75.628 5.04896 75.7785 5.36498L83.4392 19.2247C83.5596 19.5558 83.7101 19.8868 83.8606 20.2179Z" fill="#297899"/>
<path d="M119.153 23.2578C119.364 23.2578 119.544 23.3481 119.695 23.5136L121.23 25.184C120.252 26.3578 119.063 27.2607 117.648 27.8927C116.233 28.5248 114.548 28.8408 112.576 28.8408C110.83 28.8408 109.25 28.5398 107.85 27.9379C106.436 27.3359 105.247 26.4932 104.253 25.4248C103.26 24.3413 102.492 23.0621 101.966 21.5723C101.424 20.0825 101.168 18.4422 101.168 16.6515C101.168 14.8607 101.454 13.2204 102.026 11.7306C102.598 10.2408 103.395 8.9466 104.434 7.87815C105.472 6.79465 106.706 5.96698 108.151 5.36504C109.596 4.76309 111.176 4.47717 112.907 4.47717C114.623 4.47717 116.158 4.7631 117.467 5.31989C118.792 5.87669 119.936 6.61407 120.899 7.54708L119.62 9.35291C119.529 9.47329 119.424 9.57864 119.304 9.66893C119.183 9.75922 119.018 9.80436 118.807 9.80436C118.581 9.80436 118.34 9.69902 118.054 9.50339C117.769 9.29271 117.407 9.06698 116.971 8.82621C116.534 8.57038 115.993 8.34465 115.33 8.14902C114.668 7.93834 113.855 7.84805 112.877 7.84805C111.733 7.84805 110.695 8.04368 109.747 8.44999C108.798 8.84125 107.986 9.42815 107.293 10.1956C106.601 10.9631 106.074 11.8811 105.698 12.9796C105.322 14.0782 105.126 15.3121 105.126 16.7117C105.126 18.1112 105.322 19.3602 105.728 20.4587C106.12 21.5573 106.676 22.4903 107.369 23.2427C108.061 23.9952 108.889 24.582 109.822 24.9733C110.755 25.3646 111.763 25.5753 112.847 25.5753C113.509 25.5753 114.096 25.5452 114.623 25.4699C115.15 25.3947 115.631 25.2893 116.068 25.1238C116.504 24.9583 116.926 24.7626 117.317 24.5219C117.708 24.2811 118.1 23.9801 118.491 23.634C118.717 23.3631 118.927 23.2578 119.153 23.2578Z" fill="#297899"/>
<path d="M127.385 0.760132C127.987 0.760132 128.544 0.850426 129.041 1.03101C129.537 1.21159 129.944 1.45237 130.29 1.75334C130.621 2.06936 130.892 2.43052 131.073 2.86693C131.253 3.30334 131.343 3.76984 131.343 4.28149C131.343 4.73295 131.268 5.15431 131.133 5.53053C130.997 5.90674 130.817 6.2679 130.576 6.61402C130.35 6.96014 130.079 7.29121 129.778 7.62228C129.477 7.9383 129.176 8.26936 128.845 8.60043L126.482 11.0082C126.768 10.9179 127.054 10.8577 127.325 10.8126C127.596 10.7674 127.852 10.7524 128.093 10.7524H130.741C131.012 10.7524 131.223 10.8276 131.374 10.9781C131.524 11.1286 131.599 11.3242 131.599 11.58V13.1H122.87V12.2572C122.87 12.0917 122.9 11.9111 122.975 11.7305C123.036 11.5499 123.156 11.3694 123.307 11.2189L126.874 7.71257C127.144 7.45674 127.385 7.20091 127.611 6.91499C127.837 6.64412 128.032 6.3582 128.198 6.07228C128.363 5.78635 128.499 5.51548 128.589 5.22956C128.695 4.94363 128.74 4.67276 128.74 4.41693C128.74 3.93538 128.604 3.57422 128.318 3.28829C128.047 3.01742 127.686 2.86693 127.265 2.86693C126.828 2.86693 126.482 2.97227 126.226 3.198C125.955 3.42373 125.76 3.7247 125.609 4.13101C125.474 4.35674 125.323 4.50722 125.158 4.59751C124.992 4.68781 124.736 4.70286 124.39 4.64266L122.96 4.41693C123.141 3.198 123.623 2.29509 124.42 1.69314C125.218 1.0912 126.196 0.760132 127.385 0.760132Z" fill="#297899"/>
<path d="M31.6968 28.6602L36.4828 25.5602L36.2269 31.0078L31.5312 34.168L31.6968 28.6602Z" fill="#297899"/>
<path d="M19.3701 22.1441L24.9538 18.8033L24.8635 25.0184L19.4002 28.4344L19.3701 22.1441Z" fill="#297899"/>
<path d="M31.9072 21.6927L36.8136 18.6228L36.5276 24.4315L31.7266 27.5466L31.9072 21.6927Z" fill="#297899"/>
<path d="M25.6768 32.5577L30.7638 29.2621L30.5983 34.8L25.6016 38.1558L25.6768 32.5577Z" fill="#297899"/>
<path d="M19.5205 36.6057L24.8333 33.1595L24.758 38.7727L19.5506 42.2639L19.5205 36.6057Z" fill="#297899"/>
<path d="M19.4004 29.5028L24.8486 26.1018L24.7734 32.061L19.4305 35.5222L19.4004 29.5028Z" fill="#297899"/>
<path d="M25.8715 18.2466L31.2144 15.0413L31.0188 21.166L25.7812 24.4466L25.8715 18.2466Z" fill="#297899"/>
<path d="M25.7667 25.5302L30.9891 22.2646L30.7935 28.1486L25.6914 31.4744L25.7667 25.5302Z" fill="#297899"/>
<path d="M12.2814 24.853L12.1309 18.6379L17.6844 21.9486L17.7145 28.2389L12.2814 24.853Z" fill="#297899"/>
<path d="M6.15486 21.0305L5.91406 14.9058L11.2118 18.081L11.3623 24.266L6.15486 21.0305Z" fill="#297899"/>
<path d="M12.447 31.8956L12.3115 25.9364L17.7146 29.3073L17.7447 35.3267L12.447 31.8956Z" fill="#297899"/>
<path d="M6.44198 28.013L6.20117 22.129L11.3785 25.3645L11.529 31.2936L6.44198 28.013Z" fill="#297899"/>
<path d="M0.737359 24.3112L0.40625 18.5175L5.26752 21.5573L5.50832 27.3961L0.737359 24.3112Z" fill="#297899"/>
<path d="M0.346156 17.4038L0 11.3844L4.96661 14.349L5.22246 20.4436L0.346156 17.4038Z" fill="#297899"/>
<path d="M12.612 38.5922L12.4766 32.9941L17.7592 36.4102L17.7893 42.0684L12.612 38.5922Z" fill="#297899"/>
<path d="M6.72771 34.6495L6.50195 29.1267L11.5589 32.3922L11.6793 37.9753L6.72771 34.6495Z" fill="#297899"/>
<path d="M1.12856 30.8874L0.8125 25.4398L5.55336 28.5097L5.77911 34.0175L1.12856 30.8874Z" fill="#297899"/>
<path d="M19.5645 6.58388L24.5913 3.81494L29.889 6.61397L24.8622 9.48825L19.5645 6.58388Z" fill="#297899"/>
<path d="M13.6348 3.33345L18.6465 0.699951L23.6282 3.3184L18.6164 6.07229L13.6348 3.33345Z" fill="#297899"/>
<path d="M13.2744 10.0602L18.6173 7.11072L23.9451 10.0301L18.5872 13.1L13.2744 10.0602Z" fill="#297899"/>
<path d="M19.5039 13.6267L24.8769 10.5417L30.4305 13.5816L25.0575 16.802L19.5039 13.6267Z" fill="#297899"/>
<path d="M6.75684 13.6418L12.3405 10.5719L17.6683 13.6268L12.0847 16.8321L6.75684 13.6418Z" fill="#297899"/>
<path d="M7.34375 6.65918L12.6716 3.84509L17.6683 6.58393L12.3405 9.5184L7.34375 6.65918Z" fill="#297899"/>
<path d="M12.9883 17.3588L18.587 14.1534L24.1707 17.3437L18.5569 20.6996L12.9883 17.3588Z" fill="#297899"/>
<path d="M0.842773 10.1054L6.39635 7.1709L11.4081 10.0452L5.85453 13.1L0.842773 10.1054Z" fill="#297899"/>
<path d="M35.1729 5.48538L40.1094 2.65625L45.0158 5.47033L40.0793 8.4349L35.1729 5.48538Z" fill="#297899"/>
<path d="M40.7871 9.6989L45.7086 6.74939L45.6333 12.2271L40.8172 15.2368L40.7871 9.6989Z" fill="#297899"/>
<path d="M34.5554 12.0917L34.4199 6.61401L39.2962 9.53344L39.3263 15.0713L34.5554 12.0917Z" fill="#E2E2E2"/>
</svg>
